<svg fill="#FDB428" xmlns="http://www.w3.org/2000/svg" xmlns:xlink="http://www.w3.org/1999/xlink" version="1.1" x="0px" y="0px" viewBox="0 0 100 100" enable-background="new 0 0 100 100" xml:space="preserve"><path d="M90.667,20.486L76.563,37.947c-1.041,1.289-2.93,1.49-4.219,0.449l-4.667-3.77c-1.289-1.041-1.49-2.93-0.449-4.219  L81.13,13.196c1.878-2.325,5.206-3.198,7.803-1.719C92.242,13.362,92.958,17.65,90.667,20.486z"></path><path d="M11.067,11.477c2.597-1.479,5.925-0.606,7.803,1.719l13.901,17.211c1.041,1.289,0.84,3.177-0.449,4.219l-4.667,3.77  c-1.289,1.041-3.178,0.84-4.219-0.449L9.333,20.486C7.042,17.65,7.758,13.362,11.067,11.477z"></path><path d="M91.883,78.988c-0.249,2.515-1.597,4.761-3.699,6.161l-5.852,3.901c-5.088,3.393-11.845,2.375-15.702-2.399  c-5.558-6.884-1.998-2.476-16.63-20.592C35.632,83.847,39.058,79.605,33.37,86.651c-3.855,4.773-10.612,5.794-15.702,2.399  l-5.852-3.901c-2.102-1.4-3.45-3.646-3.699-6.161c-0.249-2.514,0.633-4.98,2.42-6.768l7.342-7.342  c1.078-1.081,2.796-1.178,3.993-0.223l13.1,10.459l11.171-13.831L31.426,43.063l4.667-3.77l0,0L50,56.51l13.907-17.218l0,0  l4.667,3.77L53.856,61.285l11.171,13.831l13.1-10.459c1.197-0.955,2.915-0.858,3.993,0.223l7.342,7.342  C91.25,74.008,92.132,76.475,91.883,78.988z"></path></svg>