<svg xmlns="http://www.w3.org/2000/svg" xmlns:xlink="http://www.w3.org/1999/xlink" width="100" height="100" viewBox="0 0 100 100"><g><g transform="translate(50 50) scale(0.69 0.69) rotate(-15) translate(-50 -50)" style="fill:#002557"><svg fill="#002557" xmlns:x="http://ns.adobe.com/Extensibility/1.0/" xmlns:i="http://ns.adobe.com/AdobeIllustrator/10.0/" xmlns:graph="http://ns.adobe.com/Graphs/1.0/" xmlns="http://www.w3.org/2000/svg" xmlns:xlink="http://www.w3.org/1999/xlink" version="1.1" x="0px" y="0px" viewBox="0 0 100 100" enable-background="new 0 0 100 100" xml:space="preserve"><g><g i:extraneous="self"><path d="M94.935,49.981c0.491-1.054,0.151-1.709-0.535-2.188c-0.038-0.034-48.956-26.82-48.956-26.82    c-0.124-0.071-0.275-0.104-0.443-0.104c-0.235,0-0.498,0.064-0.763,0.196c-0.45,0.223-0.838,0.609-1.028,1.017L31.881,46.374    c-0.305,0.655-0.035,1.188,0.611,1.213L92.141,50l-61.898,2.41c-0.669,0.025-1.437,0.559-1.742,1.215L17.172,77.917    c-0.19,0.406-0.162,0.793,0.08,1.018c0.143,0.129,0.344,0.196,0.58,0.196c0.166,0,0.349-0.033,0.541-0.105l73.154-26.508    C92.916,52.069,94.339,51.258,94.935,49.981z"></path><path d="M6.144,25.119c-0.725,0-1.312,0.671-1.312,1.5s0.587,1.5,1.312,1.5h26.835c0.725,0,1.312-0.671,1.312-1.5    s-0.587-1.5-1.312-1.5H6.144z"></path><path d="M6.144,43.623c-0.725,0-1.312-0.671-1.312-1.5s0.587-1.5,1.312-1.5h20.2c0.725,0,1.312,0.671,1.312,1.5    s-0.587,1.5-1.312,1.5H6.144z"></path><path d="M6.144,59.127c-0.725,0-1.312-0.672-1.312-1.5s0.587-1.5,1.312-1.5h12.825c0.725,0,1.312,0.672,1.312,1.5    s-0.587,1.5-1.312,1.5H6.144z"></path><path d="M6.144,74.631c-0.725,0-1.312-0.672-1.312-1.5s0.587-1.5,1.312-1.5h5.7c0.725,0,1.312,0.672,1.312,1.5    s-0.587,1.5-1.312,1.5H6.144z"></path></g></g></svg></g></g></svg>